<?xml version="1.0" standalone="no"?><!DOCTYPE svg PUBLIC "-//W3C//DTD SVG 1.1//EN" "http://www.w3.org/Graphics/SVG/1.1/DTD/svg11.dtd"><svg t="1711205153131" class="icon" viewBox="0 0 1024 1024" version="1.1" xmlns="http://www.w3.org/2000/svg" p-id="4715" xmlns:xlink="http://www.w3.org/1999/xlink" width="200" height="200"><path d="M361.988428 775.683495c5.941316 37.222763-5.374404 76.691683-34.006512 105.32379-47.423079 47.423079-124.585483 47.424102-172.007539 0.001023-47.423079-47.423079-47.424102-124.58753-0.001023-172.010609 28.634154-28.634154 68.108191-39.947827 105.335047-34.003442 13.087063-14.038738 24.976858-27.597545 35.555797-40.528042-59.322084-20.174482-127.665635-6.67912-174.884053 40.538275-66.166979 66.166979-66.164932 173.829024 0.001023 239.996003s173.826977 66.164932 239.993956-0.001023c47.207162-47.207162 60.70764-115.5282 40.554648-174.839027C389.579833 750.747569 376.009769 762.627131 361.988428 775.683495z" fill="#272636" p-id="4716"></path><path d="M735.11452 628.360148c10.385535 13.018501 22.099321 26.66736 35.004235 40.742936 37.158295-5.859451 76.525907 5.469572 105.099686 34.044374 47.423079 47.423079 47.422056 124.585483-0.001023 172.007539-47.423079 47.423079-124.585483 47.424102-172.008562 0.001023-28.554336-28.554336-39.888476-67.889203-34.056654-105.023962-14.07353-12.886495-27.733645-24.607444-40.761356-34.981722-19.741623 59.116399-6.15928 127.014812 40.825824 173.998893 66.166979 66.166979 173.826977 66.165955 239.992933-0.001023s66.168002-173.826977 0.001023-239.993956C862.200964 622.144586 794.253432 608.571453 735.11452 628.360148z" fill="#272636" p-id="4717"></path><path d="M671.78517 264.315898c-5.882987-37.175691 5.441942-76.571956 34.032094-105.162108 47.423079-47.423079 124.58753-47.421033 172.010609 0.001023s47.421033 124.585483-0.001023 172.007539c-28.586059 28.586059-67.974138 39.912012-105.143689 34.036187-13.422707 14.527878-25.108864 28.077475-35.243689 40.658002 59.204403 19.928888 127.295198 6.384407 174.380586-40.702004 66.166979-66.166979 66.168002-173.826977 0.001023-239.993956s-173.829024-66.168002-239.996003-0.001023c-47.106878 47.106878-60.643172 115.237581-40.674375 174.461427C643.423215 289.725614 656.949276 278.048667 671.78517 264.315898z" fill="#272636" p-id="4718"></path><path d="M289.531186 393.699664c-10.937097-12.989849-23.049972-26.478048-36.172851-40.259936-37.360909 6.112208-77.04063-5.173836-105.792465-33.926694-47.424102-47.424102-47.424102-124.58753-0.001023-172.010609s124.586506-47.423079 172.010609 0.001023c28.765137 28.765137 40.048111 68.468394 33.917484 105.84363 13.768585 13.115716 27.257807 25.236777 40.250726 36.174897 20.729114-59.579957 7.340175-128.494513-40.176025-176.010713-66.168002-66.168002-173.829024-66.168002-239.996003-0.001023s-66.166979 173.828001 0.001023 239.996003C161.075559 401.00914 229.963509 414.403195 289.531186 393.699664z" fill="#272636" p-id="4719"></path><path d="M518.299473 468.686519c-13.235442 0-25.679869 5.154393-35.034934 14.512529-9.362228 9.359158-14.516622 21.803585-14.516622 35.039028 0 13.232372 5.154393 25.675776 14.512529 35.034934s21.803585 14.509459 35.039028 14.512529c13.232372 0 25.675776-5.154393 35.034934-14.512529 19.317974-19.317974 19.317974-50.754964 0-70.073962C543.976272 473.839889 531.531845 468.686519 518.299473 468.686519z" fill="#272636" p-id="4720"></path><path d="M755.471151 807.547203c2.817162 3.016707 9.722432 10.837836 11.168364 12.282744 0.233314 0.233314 0.474814 0.452301 0.711198 0.680499 0.735757 0.822738 1.232061 1.152243 1.232061 1.152243 16.888645 15.187911 41.188074 16.302291 55.371098 2.12029 13.308097-13.308097 13.153578-35.529191 0.534166-52.172243-1.352811-1.784646-8.481162-8.739035-10.771321-10.706853-1.390673-1.194198-2.576685-2.212388-3.055592-2.65548-38.814004-35.94977-165.487032-158.965501-163.005514-231.04412 0.103354-3.006474-0.017396-15.645328-0.034792-19.291368-0.352017-72.309886 124.548644-193.589067 163.040307-229.241055 0.478907-0.443092 1.664919-1.461281 3.055592-2.65548 2.291183-1.968841 9.41851-8.92323 10.771321-10.706853 12.619412-16.643052 12.773931-38.863123-0.534166-52.172243-14.183024-14.183024-38.482453-13.068643-55.371098 2.12029 0 0-0.497327 0.329505-1.232061 1.152243-0.236384 0.227174-0.477884 0.447185-0.711198 0.680499-1.445932 1.445932-8.351202 9.266038-11.168364 12.282744-37.894052 40.584324-150.080134 154.416905-221.004463 159.791309-5.590322 0.423649-24.685215 0.330528-29.358655 0.146333-72.605621-2.855024-191.189414-125.002992-226.374774-162.990165-0.443092-0.478907-1.461281-1.664919-2.65548-3.055592-1.968841-2.291183-8.92323-9.41851-10.706853-10.772344-16.643052-12.619412-38.863123-12.773931-52.172243 0.535189-14.183024 14.183024-13.068643 38.482453 2.12029 55.371098 0 0 0.329505 0.497327 1.152243 1.232061 0.227174 0.236384 0.447185 0.477884 0.680499 0.711198 1.445932 1.445932 9.266038 8.351202 12.282744 11.168364 39.529295 36.908608 148.546198 144.296407 159.155836 215.390605 1.14201 7.65126 1.066285 38.897915-0.991584 48.583508-15.090697 71.019497-119.634728 173.949774-158.163229 209.925127-3.016707 2.817162-10.837836 9.722432-12.282744 11.168364-0.233314 0.233314-0.452301 0.473791-0.680499 0.711198-0.822738 0.735757-1.152243 1.232061-1.152243 1.232061-15.187911 16.888645-16.302291 41.188074-2.12029 55.371098 13.308097 13.308097 35.529191 13.153578 52.172243 0.534166 1.784646-1.352811 8.739035-8.481162 10.706853-10.771321 1.194198-1.390673 2.212388-2.576685 2.65548-3.055592 34.351366-37.087687 148.196227-154.394393 221.137493-162.589029 6.578836-0.738827 29.862121-0.714268 35.944654-0.140193C606.806249 654.56702 717.815529 767.218706 755.471151 807.547203zM572.757782 572.695361c-14.546298 14.546298-33.888831 22.560832-54.457286 22.560832-20.572548 0-39.914058-8.014534-54.460356-22.560832s-22.560832-33.888831-22.560832-54.457286c0-20.572548 8.014534-39.914058 22.560832-54.460356 14.546298-14.550391 33.884738-22.560832 54.460356-22.560832 20.572548 0 39.910988 8.011464 54.460356 22.560832C602.789773 493.805616 602.789773 542.66644 572.757782 572.695361z" fill="#272636" p-id="4721"></path></svg>